<?xml version="1.0" encoding="UTF-8" standalone="no"?>
<!DOCTYPE svg PUBLIC "-//W3C//DTD SVG 1.1//EN" "http://www.w3.org/Graphics/SVG/1.1/DTD/svg11.dtd">
<svg xmlns="http://www.w3.org/2000/svg" version="1.1" viewBox="0.00 0.00 500.00 500.00">
  <g stroke-width="2.00" fill="none" stroke-linecap="butt">
    <path stroke="#8ad1f1" vector-effect="non-scaling-stroke" d="
  M 192.89 124.27
  C 227.65 136.17 257.61 159.61 277.42 189.82
  C 282.28 197.23 288.88 208.70 292.37 218.89
  C 294.64 225.50 297.89 232.84 299.10 238.50
  Q 300.79 246.36 300.42 254.53
  A 0.48 0.48 0.0 0 0 301.05 255.01
  C 303.76 254.15 305.38 252.93 307.21 250.51
  C 322.28 230.50 343.64 215.99 367.63 209.10
  C 387.78 203.30 410.35 203.83 430.72 208.55
  Q 431.78 208.79 432.13 207.76
  Q 432.66 206.23 432.41 204.02
  C 425.81 145.38 390.18 99.32 333.36 81.18
  C 328.11 79.50 322.72 78.67 317.50 78.50
  Q 298.33 77.89 276.02 78.48
  Q 264.47 78.78 258.55 79.97
  C 233.97 84.90 209.83 100.71 192.55 117.56
  Q 190.66 119.40 189.83 123.22
  Q 189.70 123.81 190.25 124.07
  Q 191.01 124.43 191.91 124.22
  Q 192.41 124.11 192.89 124.27"
    />
    <path stroke="#95d6f3" vector-effect="non-scaling-stroke" d="
  M 6.21 249.75
  Q 0.65 272.33 4.46 295.25"
    />
    <path stroke="#8ad1f1" vector-effect="non-scaling-stroke" d="
  M 4.46 295.25
  C 13.08 357.07 56.88 403.78 117.94 415.33
  Q 128.62 417.35 136.50 417.29"
    />
    <path stroke="#95d6f3" vector-effect="non-scaling-stroke" d="
  M 136.50 417.29
  Q 142.25 417.54 148.00 417.58
  Q 201.63 417.95 255.25 417.46"
    />
    <path stroke="#8ad1f1" vector-effect="non-scaling-stroke" d="
  M 255.25 417.46
  L 264.83 418.04
  A 0.97 0.97 0.0 0 0 265.77 416.66
  Q 265.20 415.42 264.02 414.23
  Q 226.17 376.27 188.26 338.38
  C 169.56 319.70 153.80 299.45 143.95 275.55
  C 137.11 258.93 133.09 238.13 132.19 219.14
  C 131.18 197.83 136.31 176.55 144.03 154.88
  C 146.31 148.50 150.47 145.85 150.14 138.07
  Q 150.13 137.63 149.68 137.63
  Q 133.40 137.74 117.43 140.31
  C 87.81 145.07 60.55 161.03 40.22 182.94
  Q 13.75 211.48 6.21 249.75"
    />
    <path stroke="#1fa8e4" vector-effect="non-scaling-stroke" d="
  M 255.25 417.46
  Q 254.30 415.83 252.79 415.02
  Q 251.76 414.48 252.75 414.50
  Q 252.91 414.50 252.97 414.40
  Q 253.15 414.07 252.89 413.80
  C 249.75 410.59 247.09 406.75 244.16 403.79
  C 230.44 389.90 217.10 375.68 202.94 362.17
  Q 185.28 345.34 168.47 327.65
  C 153.95 312.38 144.00 295.60 136.35 274.66
  Q 135.25 271.64 132.58 265.58
  C 129.48 258.54 128.41 251.05 125.99 243.78
  Q 124.59 239.58 124.29 236.03
  C 123.14 222.36 122.41 206.27 125.86 192.89
  Q 128.16 183.99 129.31 174.86
  C 130.59 164.68 138.12 154.85 137.67 147.86
  Q 137.63 147.31 137.09 147.28
  C 127.50 146.74 118.93 147.54 109.53 150.71
  C 102.65 153.04 95.15 154.06 88.90 156.62
  C 74.42 162.54 60.97 172.52 49.64 183.75
  C 39.99 193.30 32.48 205.03 25.80 216.99
  C 22.25 223.33 19.08 230.48 17.76 236.97
  Q 17.15 240.02 16.45 242.24
  C 15.25 246.10 15.36 249.59 14.60 253.41
  Q 14.57 253.54 14.55 253.41
  L 14.42 252.66
  Q 14.35 252.29 14.33 252.66
  Q 14.28 253.69 13.21 253.42
  Q 12.80 253.31 12.55 252.96
  Q 10.41 249.89 6.21 249.75"
    />
    <path stroke="#1fa8e4" vector-effect="non-scaling-stroke" d="
  M 136.50 417.29
  L 139.53 417.23
  Q 139.75 417.23 139.56 417.11
  Q 139.40 417.01 139.32 416.93
  Q 138.89 416.50 139.40 416.18
  C 142.43 414.28 140.96 411.46 140.34 408.79
  A 1.30 1.29 84.1 0 0 139.12 407.79
  C 135.59 407.69 131.97 407.02 128.64 406.93
  Q 116.97 406.59 105.52 404.31
  C 102.57 403.72 99.88 401.91 96.88 400.90
  C 90.73 398.84 85.48 395.81 79.53 393.60
  C 72.46 390.97 64.73 386.03 59.14 381.10
  C 31.78 357.01 17.35 329.57 13.27 293.51
  Q 13.08 291.79 12.41 290.16
  Q 12.22 289.70 11.73 289.82
  Q 8.87 290.52 7.37 293.03
  Q 7.24 293.25 7.39 293.47
  Q 7.58 293.73 7.39 294.08
  Q 6.14 296.40 4.46 295.25"
    />
    <path stroke="#c8e8fa" vector-effect="non-scaling-stroke" d="
  M 205.49 324.91
  C 229.85 349.83 254.68 374.30 279.24 399.03
  A 1.47 1.46 -68.5 0 0 281.74 397.94
  C 280.97 377.09 281.43 355.99 281.47 334.94
  Q 281.52 306.83 281.34 278.73
  C 280.94 219.34 247.42 168.14 191.40 147.56
  Q 184.70 145.10 177.92 142.72
  Q 177.41 142.54 176.90 142.72
  Q 173.90 143.75 172.19 146.95
  C 164.61 161.18 158.84 175.71 156.50 191.60
  Q 153.21 213.94 155.96 236.38
  C 159.38 264.27 172.93 289.96 191.59 310.53
  Q 193.56 312.70 205.49 324.91"
    />
    <path stroke="#c8e8fa" vector-effect="non-scaling-stroke" d="
  M 305.32 399.37
  Q 307.21 399.73 308.31 398.30
  C 314.15 390.74 321.80 383.89 327.55 378.10
  Q 357.29 348.19 386.92 318.17
  C 404.07 300.80 416.37 283.57 423.96 260.48
  C 426.06 254.11 427.60 246.57 429.33 239.53
  C 430.48 234.85 430.24 230.91 425.03 229.65
  C 406.59 225.21 385.08 225.12 367.07 231.91
  C 331.85 245.18 304.97 278.93 304.71 317.50
  Q 304.42 358.25 304.87 398.83
  A 0.56 0.55 5.8 0 0 305.32 399.37"
    />
    <path stroke="#95d6f3" vector-effect="non-scaling-stroke" d="
  M 335.25 417.71
  Q 372.78 418.44 398.19 418.19
  Q 412.54 418.05 427.25 413.21"
    />
    <path stroke="#8ad1f1" vector-effect="non-scaling-stroke" d="
  M 427.25 413.21
  C 503.13 390.22 517.89 290.76 455.59 243.67
  Q 453.88 242.38 452.49 242.66
  Q 451.92 242.77 451.78 243.34
  Q 448.36 257.68 447.03 262.00
  C 438.69 289.02 423.47 312.90 402.94 333.43
  Q 361.68 374.69 320.26 416.12
  A 1.07 1.07 0.0 0 0 320.79 417.92
  C 325.22 418.86 330.80 417.80 335.25 417.71"
    />
    <path stroke="#1fa8e4" vector-effect="non-scaling-stroke" d="
  M 427.25 413.21
  Q 427.29 412.68 427.65 412.26
  Q 428.00 411.84 427.51 411.61
  L 423.62 409.72
  Q 423.04 409.44 422.98 408.79
  L 422.83 407.21
  Q 422.79 406.69 423.29 406.52
  C 427.68 405.04 431.63 403.84 435.94 401.62
  C 440.27 399.38 444.82 397.94 448.63 395.20
  C 463.03 384.82 475.06 372.42 480.63 355.22
  C 484.70 342.66 491.52 328.76 487.24 315.25
  C 485.07 308.40 484.56 301.98 483.49 294.96
  C 481.52 281.96 473.12 271.72 465.76 262.20
  Q 462.74 258.30 458.18 256.21
  A 1.14 1.14 0.0 0 0 456.57 257.25
  C 456.56 261.16 454.56 263.85 453.84 267.17
  C 451.92 275.99 447.36 286.28 442.74 293.52
  C 433.70 307.70 424.25 322.38 412.59 334.60
  Q 396.46 351.51 354.37 393.01
  C 347.22 400.06 341.11 407.32 334.85 414.89
  Q 334.53 415.27 334.67 415.74
  L 335.25 417.71"
    />
    <path stroke="#1fa8e4" vector-effect="non-scaling-stroke" d="
  M 204.89 118.68
  C 211.32 122.81 218.45 125.55 225.31 129.34
  Q 229.44 131.62 234.03 135.51
  Q 243.24 143.33 252.45 151.15
  C 279.10 173.80 297.94 203.34 307.50 236.83
  Q 307.66 237.39 308.15 237.07
  C 312.07 234.54 315.01 230.60 318.25 228.11
  C 325.25 222.75 332.46 216.60 339.62 212.50
  Q 350.94 206.01 363.41 202.08
  C 369.35 200.22 377.31 199.51 384.21 196.73
  C 389.76 194.50 398.62 195.50 404.66 195.39
  C 408.54 195.32 414.54 195.73 419.35 195.09
  Q 420.79 194.90 420.86 193.45
  Q 421.23 185.86 420.44 179.15
  C 419.64 172.34 416.25 163.07 412.88 157.14
  C 407.70 148.02 402.40 138.14 395.93 130.45
  Q 375.86 106.58 347.15 93.68
  C 341.75 91.26 335.38 90.86 329.57 88.87
  Q 329.10 88.71 328.77 88.35
  C 324.97 84.21 298.43 85.42 292.56 85.20
  C 281.98 84.80 271.66 84.86 261.34 87.85
  C 240.23 93.97 221.19 101.98 204.73 116.63
  A 1.29 1.29 0.0 0 0 204.89 118.68"
    />
  </g>
  <path fill="#ffffff" d="
  M 0.00 0.00
  L 500.00 0.00
  L 500.00 500.00
  L 0.00 500.00
  L 0.00 0.00
  Z
  M 192.89 124.27
  C 227.65 136.17 257.61 159.61 277.42 189.82
  C 282.28 197.23 288.88 208.70 292.37 218.89
  C 294.64 225.50 297.89 232.84 299.10 238.50
  Q 300.79 246.36 300.42 254.53
  A 0.48 0.48 0.0 0 0 301.05 255.01
  C 303.76 254.15 305.38 252.93 307.21 250.51
  C 322.28 230.50 343.64 215.99 367.63 209.10
  C 387.78 203.30 410.35 203.83 430.72 208.55
  Q 431.78 208.79 432.13 207.76
  Q 432.66 206.23 432.41 204.02
  C 425.81 145.38 390.18 99.32 333.36 81.18
  C 328.11 79.50 322.72 78.67 317.50 78.50
  Q 298.33 77.89 276.02 78.48
  Q 264.47 78.78 258.55 79.97
  C 233.97 84.90 209.83 100.71 192.55 117.56
  Q 190.66 119.40 189.83 123.22
  Q 189.70 123.81 190.25 124.07
  Q 191.01 124.43 191.91 124.22
  Q 192.41 124.11 192.89 124.27
  Z
  M 6.21 249.75
  Q 0.65 272.33 4.46 295.25
  C 13.08 357.07 56.88 403.78 117.94 415.33
  Q 128.62 417.35 136.50 417.29
  Q 142.25 417.54 148.00 417.58
  Q 201.63 417.95 255.25 417.46
  L 264.83 418.04
  A 0.97 0.97 0.0 0 0 265.77 416.66
  Q 265.20 415.42 264.02 414.23
  Q 226.17 376.27 188.26 338.38
  C 169.56 319.70 153.80 299.45 143.95 275.55
  C 137.11 258.93 133.09 238.13 132.19 219.14
  C 131.18 197.83 136.31 176.55 144.03 154.88
  C 146.31 148.50 150.47 145.85 150.14 138.07
  Q 150.13 137.63 149.68 137.63
  Q 133.40 137.74 117.43 140.31
  C 87.81 145.07 60.55 161.03 40.22 182.94
  Q 13.75 211.48 6.21 249.75
  Z
  M 205.49 324.91
  C 229.85 349.83 254.68 374.30 279.24 399.03
  A 1.47 1.46 -68.5 0 0 281.74 397.94
  C 280.97 377.09 281.43 355.99 281.47 334.94
  Q 281.52 306.83 281.34 278.73
  C 280.94 219.34 247.42 168.14 191.40 147.56
  Q 184.70 145.10 177.92 142.72
  Q 177.41 142.54 176.90 142.72
  Q 173.90 143.75 172.19 146.95
  C 164.61 161.18 158.84 175.71 156.50 191.60
  Q 153.21 213.94 155.96 236.38
  C 159.38 264.27 172.93 289.96 191.59 310.53
  Q 193.56 312.70 205.49 324.91
  Z
  M 305.32 399.37
  Q 307.21 399.73 308.31 398.30
  C 314.15 390.74 321.80 383.89 327.55 378.10
  Q 357.29 348.19 386.92 318.17
  C 404.07 300.80 416.37 283.57 423.96 260.48
  C 426.06 254.11 427.60 246.57 429.33 239.53
  C 430.48 234.85 430.24 230.91 425.03 229.65
  C 406.59 225.21 385.08 225.12 367.07 231.91
  C 331.85 245.18 304.97 278.93 304.71 317.50
  Q 304.42 358.25 304.87 398.83
  A 0.56 0.55 5.8 0 0 305.32 399.37
  Z
  M 335.25 417.71
  Q 372.78 418.44 398.19 418.19
  Q 412.54 418.05 427.25 413.21
  C 503.13 390.22 517.89 290.76 455.59 243.67
  Q 453.88 242.38 452.49 242.66
  Q 451.92 242.77 451.78 243.34
  Q 448.36 257.68 447.03 262.00
  C 438.69 289.02 423.47 312.90 402.94 333.43
  Q 361.68 374.69 320.26 416.12
  A 1.07 1.07 0.0 0 0 320.79 417.92
  C 325.22 418.86 330.80 417.80 335.25 417.71
  Z"
  />
  <path fill="#14a3e2" d="
  M 191.91 124.22
  Q 191.01 124.43 190.25 124.07
  Q 189.70 123.81 189.83 123.22
  Q 190.66 119.40 192.55 117.56
  C 209.83 100.71 233.97 84.90 258.55 79.97
  Q 264.47 78.78 276.02 78.48
  Q 298.33 77.89 317.50 78.50
  C 322.72 78.67 328.11 79.50 333.36 81.18
  C 390.18 99.32 425.81 145.38 432.41 204.02
  Q 432.66 206.23 432.13 207.76
  Q 431.78 208.79 430.72 208.55
  C 410.35 203.83 387.78 203.30 367.63 209.10
  C 343.64 215.99 322.28 230.50 307.21 250.51
  C 305.38 252.93 303.76 254.15 301.05 255.01
  A 0.48 0.48 0.0 0 1 300.42 254.53
  Q 300.79 246.36 299.10 238.50
  C 297.89 232.84 294.64 225.50 292.37 218.89
  C 288.88 208.70 282.28 197.23 277.42 189.82
  C 257.61 159.61 227.65 136.17 192.89 124.27
  Q 192.41 124.11 191.91 124.22
  Z
  M 204.89 118.68
  C 211.32 122.81 218.45 125.55 225.31 129.34
  Q 229.44 131.62 234.03 135.51
  Q 243.24 143.33 252.45 151.15
  C 279.10 173.80 297.94 203.34 307.50 236.83
  Q 307.66 237.39 308.15 237.07
  C 312.07 234.54 315.01 230.60 318.25 228.11
  C 325.25 222.75 332.46 216.60 339.62 212.50
  Q 350.94 206.01 363.41 202.08
  C 369.35 200.22 377.31 199.51 384.21 196.73
  C 389.76 194.50 398.62 195.50 404.66 195.39
  C 408.54 195.32 414.54 195.73 419.35 195.09
  Q 420.79 194.90 420.86 193.45
  Q 421.23 185.86 420.44 179.15
  C 419.64 172.34 416.25 163.07 412.88 157.14
  C 407.70 148.02 402.40 138.14 395.93 130.45
  Q 375.86 106.58 347.15 93.68
  C 341.75 91.26 335.38 90.86 329.57 88.87
  Q 329.10 88.71 328.77 88.35
  C 324.97 84.21 298.43 85.42 292.56 85.20
  C 281.98 84.80 271.66 84.86 261.34 87.85
  C 240.23 93.97 221.19 101.98 204.73 116.63
  A 1.29 1.29 0.0 0 0 204.89 118.68
  Z"
  />
  <path fill="#2aace6" d="
  M 204.89 118.68
  A 1.29 1.29 0.0 0 1 204.73 116.63
  C 221.19 101.98 240.23 93.97 261.34 87.85
  C 271.66 84.86 281.98 84.80 292.56 85.20
  C 298.43 85.42 324.97 84.21 328.77 88.35
  Q 329.10 88.71 329.57 88.87
  C 335.38 90.86 341.75 91.26 347.15 93.68
  Q 375.86 106.58 395.93 130.45
  C 402.40 138.14 407.70 148.02 412.88 157.14
  C 416.25 163.07 419.64 172.34 420.44 179.15
  Q 421.23 185.86 420.86 193.45
  Q 420.79 194.90 419.35 195.09
  C 414.54 195.73 408.54 195.32 404.66 195.39
  C 398.62 195.50 389.76 194.50 384.21 196.73
  C 377.31 199.51 369.35 200.22 363.41 202.08
  Q 350.94 206.01 339.62 212.50
  C 332.46 216.60 325.25 222.75 318.25 228.11
  C 315.01 230.60 312.07 234.54 308.15 237.07
  Q 307.66 237.39 307.50 236.83
  C 297.94 203.34 279.10 173.80 252.45 151.15
  Q 243.24 143.33 234.03 135.51
  Q 229.44 131.62 225.31 129.34
  C 218.45 125.55 211.32 122.81 204.89 118.68
  Z"
  />
  <path fill="#14a3e2" d="
  M 255.25 417.46
  Q 254.30 415.83 252.79 415.02
  Q 251.76 414.48 252.75 414.50
  Q 252.91 414.50 252.97 414.40
  Q 253.15 414.07 252.89 413.80
  C 249.75 410.59 247.09 406.75 244.16 403.79
  C 230.44 389.90 217.10 375.68 202.94 362.17
  Q 185.28 345.34 168.47 327.65
  C 153.95 312.38 144.00 295.60 136.35 274.66
  Q 135.25 271.64 132.58 265.58
  C 129.48 258.54 128.41 251.05 125.99 243.78
  Q 124.59 239.58 124.29 236.03
  C 123.14 222.36 122.41 206.27 125.86 192.89
  Q 128.16 183.99 129.31 174.86
  C 130.59 164.68 138.12 154.85 137.67 147.86
  Q 137.63 147.31 137.09 147.28
  C 127.50 146.74 118.93 147.54 109.53 150.71
  C 102.65 153.04 95.15 154.06 88.90 156.62
  C 74.42 162.54 60.97 172.52 49.64 183.75
  C 39.99 193.30 32.48 205.03 25.80 216.99
  C 22.25 223.33 19.08 230.48 17.76 236.97
  Q 17.15 240.02 16.45 242.24
  C 15.25 246.10 15.36 249.59 14.60 253.41
  Q 14.57 253.54 14.55 253.41
  L 14.42 252.66
  Q 14.35 252.29 14.33 252.66
  Q 14.28 253.69 13.21 253.42
  Q 12.80 253.31 12.55 252.96
  Q 10.41 249.89 6.21 249.75
  Q 13.75 211.48 40.22 182.94
  C 60.55 161.03 87.81 145.07 117.43 140.31
  Q 133.40 137.74 149.68 137.63
  Q 150.13 137.63 150.14 138.07
  C 150.47 145.85 146.31 148.50 144.03 154.88
  C 136.31 176.55 131.18 197.83 132.19 219.14
  C 133.09 238.13 137.11 258.93 143.95 275.55
  C 153.80 299.45 169.56 319.70 188.26 338.38
  Q 226.17 376.27 264.02 414.23
  Q 265.20 415.42 265.77 416.66
  A 0.97 0.97 0.0 0 1 264.83 418.04
  L 255.25 417.46
  Z"
  />
  <path fill="#90d0f4" d="
  M 279.24 399.03
  C 254.68 374.30 229.85 349.83 205.49 324.91
  Q 193.56 312.70 191.59 310.53
  C 172.93 289.96 159.38 264.27 155.96 236.38
  Q 153.21 213.94 156.50 191.60
  C 158.84 175.71 164.61 161.18 172.19 146.95
  Q 173.90 143.75 176.90 142.72
  Q 177.41 142.54 177.92 142.72
  Q 184.70 145.10 191.40 147.56
  C 247.42 168.14 280.94 219.34 281.34 278.73
  Q 281.52 306.83 281.47 334.94
  C 281.43 355.99 280.97 377.09 281.74 397.94
  A 1.47 1.46 -68.5 0 1 279.24 399.03
  Z"
  />
  <path fill="#2aace6" d="
  M 255.25 417.46
  Q 201.63 417.95 148.00 417.58
  Q 142.25 417.54 136.50 417.29
  L 139.53 417.23
  Q 139.75 417.23 139.56 417.11
  Q 139.40 417.01 139.32 416.93
  Q 138.89 416.50 139.40 416.18
  C 142.43 414.28 140.96 411.46 140.34 408.79
  A 1.30 1.29 84.1 0 0 139.12 407.79
  C 135.59 407.69 131.97 407.02 128.64 406.93
  Q 116.97 406.59 105.52 404.31
  C 102.57 403.72 99.88 401.91 96.88 400.90
  C 90.73 398.84 85.48 395.81 79.53 393.60
  C 72.46 390.97 64.73 386.03 59.14 381.10
  C 31.78 357.01 17.35 329.57 13.27 293.51
  Q 13.08 291.79 12.41 290.16
  Q 12.22 289.70 11.73 289.82
  Q 8.87 290.52 7.37 293.03
  Q 7.24 293.25 7.39 293.47
  Q 7.58 293.73 7.39 294.08
  Q 6.14 296.40 4.46 295.25
  Q 0.65 272.33 6.21 249.75
  Q 10.41 249.89 12.55 252.96
  Q 12.80 253.31 13.21 253.42
  Q 14.28 253.69 14.33 252.66
  Q 14.35 252.29 14.42 252.66
  L 14.55 253.41
  Q 14.57 253.54 14.60 253.41
  C 15.36 249.59 15.25 246.10 16.45 242.24
  Q 17.15 240.02 17.76 236.97
  C 19.08 230.48 22.25 223.33 25.80 216.99
  C 32.48 205.03 39.99 193.30 49.64 183.75
  C 60.97 172.52 74.42 162.54 88.90 156.62
  C 95.15 154.06 102.65 153.04 109.53 150.71
  C 118.93 147.54 127.50 146.74 137.09 147.28
  Q 137.63 147.31 137.67 147.86
  C 138.12 154.85 130.59 164.68 129.31 174.86
  Q 128.16 183.99 125.86 192.89
  C 122.41 206.27 123.14 222.36 124.29 236.03
  Q 124.59 239.58 125.99 243.78
  C 128.41 251.05 129.48 258.54 132.58 265.58
  Q 135.25 271.64 136.35 274.66
  C 144.00 295.60 153.95 312.38 168.47 327.65
  Q 185.28 345.34 202.94 362.17
  C 217.10 375.68 230.44 389.90 244.16 403.79
  C 247.09 406.75 249.75 410.59 252.89 413.80
  Q 253.15 414.07 252.97 414.40
  Q 252.91 414.50 252.75 414.50
  Q 251.76 414.48 252.79 415.02
  Q 254.30 415.83 255.25 417.46
  Z"
  />
  <path fill="#90d0f4" d="
  M 305.32 399.37
  A 0.56 0.55 5.8 0 1 304.87 398.83
  Q 304.42 358.25 304.71 317.50
  C 304.97 278.93 331.85 245.18 367.07 231.91
  C 385.08 225.12 406.59 225.21 425.03 229.65
  C 430.24 230.91 430.48 234.85 429.33 239.53
  C 427.60 246.57 426.06 254.11 423.96 260.48
  C 416.37 283.57 404.07 300.80 386.92 318.17
  Q 357.29 348.19 327.55 378.10
  C 321.80 383.89 314.15 390.74 308.31 398.30
  Q 307.21 399.73 305.32 399.37
  Z"
  />
  <path fill="#14a3e2" d="
  M 427.25 413.21
  Q 427.29 412.68 427.65 412.26
  Q 428.00 411.84 427.51 411.61
  L 423.62 409.72
  Q 423.04 409.44 422.98 408.79
  L 422.83 407.21
  Q 422.79 406.69 423.29 406.52
  C 427.68 405.04 431.63 403.84 435.94 401.62
  C 440.27 399.38 444.82 397.94 448.63 395.20
  C 463.03 384.82 475.06 372.42 480.63 355.22
  C 484.70 342.66 491.52 328.76 487.24 315.25
  C 485.07 308.40 484.56 301.98 483.49 294.96
  C 481.52 281.96 473.12 271.72 465.76 262.20
  Q 462.74 258.30 458.18 256.21
  A 1.14 1.14 0.0 0 0 456.57 257.25
  C 456.56 261.16 454.56 263.85 453.84 267.17
  C 451.92 275.99 447.36 286.28 442.74 293.52
  C 433.70 307.70 424.25 322.38 412.59 334.60
  Q 396.46 351.51 354.37 393.01
  C 347.22 400.06 341.11 407.32 334.85 414.89
  Q 334.53 415.27 334.67 415.74
  L 335.25 417.71
  C 330.80 417.80 325.22 418.86 320.79 417.92
  A 1.07 1.07 0.0 0 1 320.26 416.12
  Q 361.68 374.69 402.94 333.43
  C 423.47 312.90 438.69 289.02 447.03 262.00
  Q 448.36 257.68 451.78 243.34
  Q 451.92 242.77 452.49 242.66
  Q 453.88 242.38 455.59 243.67
  C 517.89 290.76 503.13 390.22 427.25 413.21
  Z"
  />
  <path fill="#2aace6" d="
  M 427.25 413.21
  Q 412.54 418.05 398.19 418.19
  Q 372.78 418.44 335.25 417.71
  L 334.67 415.74
  Q 334.53 415.27 334.85 414.89
  C 341.11 407.32 347.22 400.06 354.37 393.01
  Q 396.46 351.51 412.59 334.60
  C 424.25 322.38 433.70 307.70 442.74 293.52
  C 447.36 286.28 451.92 275.99 453.84 267.17
  C 454.56 263.85 456.56 261.16 456.57 257.25
  A 1.14 1.14 0.0 0 1 458.18 256.21
  Q 462.74 258.30 465.76 262.20
  C 473.12 271.72 481.52 281.96 483.49 294.96
  C 484.56 301.98 485.07 308.40 487.24 315.25
  C 491.52 328.76 484.70 342.66 480.63 355.22
  C 475.06 372.42 463.03 384.82 448.63 395.20
  C 444.82 397.94 440.27 399.38 435.94 401.62
  C 431.63 403.84 427.68 405.04 423.29 406.52
  Q 422.79 406.69 422.83 407.21
  L 422.98 408.79
  Q 423.04 409.44 423.62 409.72
  L 427.51 411.61
  Q 428.00 411.84 427.65 412.26
  Q 427.29 412.68 427.25 413.21
  Z"
  />
  <path fill="#14a3e2" d="
  M 136.50 417.29
  Q 128.62 417.35 117.94 415.33
  C 56.88 403.78 13.08 357.07 4.46 295.25
  Q 6.14 296.40 7.39 294.08
  Q 7.58 293.73 7.39 293.47
  Q 7.24 293.25 7.37 293.03
  Q 8.87 290.52 11.73 289.82
  Q 12.22 289.70 12.41 290.16
  Q 13.08 291.79 13.27 293.51
  C 17.35 329.57 31.78 357.01 59.14 381.10
  C 64.73 386.03 72.46 390.97 79.53 393.60
  C 85.48 395.81 90.73 398.84 96.88 400.90
  C 99.88 401.91 102.57 403.72 105.52 404.31
  Q 116.97 406.59 128.64 406.93
  C 131.97 407.02 135.59 407.69 139.12 407.79
  A 1.30 1.29 84.1 0 1 140.34 408.79
  C 140.96 411.46 142.43 414.28 139.40 416.18
  Q 138.89 416.50 139.32 416.93
  Q 139.40 417.01 139.56 417.11
  Q 139.75 417.23 139.53 417.23
  L 136.50 417.29
  Z"
  />
</svg>
